<?xml version="1.0" encoding="UTF-8" standalone="no"?>
<svg xmlns="http://www.w3.org/2000/svg" viewBox="0 0 800 200" width="800" height="200">
  <!-- Casa con estrella -->
  <path d="M80 150 L80 50 L140 50 L140 100 L200 100 L200 150 Z" stroke="#2e22aa" stroke-width="10" fill="none"/>
  <path d="M140 50 L200 100" stroke="#2e22aa" stroke-width="10" fill="none"/>
  <path d="M120 100 L140 80 L160 100" stroke="#2e22aa" stroke-width="10" fill="none" stroke-linecap="round"/>
  <polygon points="120,120 130,100 140,120" fill="#2e22aa"/>
  
  <!-- Texto VecinoXpress -->
  <path d="M260 120 L280 60 L310 60 L330 120 L310 120 L306 110 L284 110 L280 120 Z M290 95 L300 95 L295 75 Z" fill="#2e22aa"/>
  <path d="M340 120 L340 60 L365 60 Q375 60 380 65 Q385 70 385 80 V85 Q385 92 380 95 Q385 98 385 105 V110 Q385 115 380 120 Z M360 80 L360 90 L365 90 Q367 90 368 88 Q369 86 369 85 V85 Q369 84 368 82 Q367 80 365 80 Z M360 100 L360 110 L367 110 Q369 110 370 108 Q371 106 371 105 V105 Q371 104 370 102 Q369 100 367 100 Z" fill="#2e22aa"/>
  <path d="M395 120 L395 60 Q405 60 415 60 Q425 60 430 65 Q435 70 435 80 V100 Q435 110 430 115 Q425 120 415 120 Z M415 80 L415 100 Q420 100 420 95 V85 Q420 80 415 80 Z" fill="#2e22aa"/>
  <path d="M445 120 L445 60 L470 60 L470 80 L480 80 L480 60 L505 60 L505 120 L480 120 L480 100 L470 100 L470 120 Z" fill="#2e22aa"/>
  <path d="M515 120 L515 60 Q525 60 535 60 Q545 60 550 65 Q555 70 555 80 V100 Q555 110 550 115 Q545 120 535 120 Z M535 80 L535 100 Q540 100 540 95 V85 Q540 80 535 80 Z" fill="#2e22aa"/>
  <path d="M570 120 L590 60 L620 60 L640 120 L620 120 L616 110 L594 110 L590 120 Z M600 95 L610 95 L605 75 Z" fill="#2e22aa"/>
  <path d="M650 120 L650 60 L675 60 L675 95 L690 60 L715 60 L715 120 L690 120 L690 85 L675 120 Z" fill="#2e22aa"/>
  <path d="M725 120 L725 60 L750 60
             C760 60 765 65 765 75
             V75
             C765 83 760 87 750 87
             H740
             V120 Z
             M740 74
             V75
             H750
             C752 75 752 74 752 73
             V73
             C752 71 752 70 750 70
             H740 Z" fill="#2e22aa"/>
  <path d="M775 120 L775 60 L800 60 L800 70 L790 70 L790 85 L800 85 L800 95 L790 95 L790 110 L800 110 L800 120 Z" fill="#2e22aa"/>
  <path d="M805 120 L805 60 L830 60 Q840 60 845 65 Q850 70 850 80 V85 Q850 92 845 95 Q850 98 850 105 V110 Q850 115 845 120 Z M825 80 L825 90 L830 90 Q832 90 833 88 Q834 86 834 85 V85 Q834 84 833 82 Q832 80 830 80 Z M825 100 L825 110 L832 110 Q834 110 835 108 Q836 106 836 105 V105 Q836 104 835 102 Q834 100 832 100 Z" fill="#2e22aa"/>
  <path d="M860 120 L860 60 Q870 60 880 60 Q890 60 895 65 Q900 70 900 80 V100 Q900 110 895 115 Q890 120 880 120 Z M880 80 L880 100 Q885 100 885 95 V85 Q885 80 880 80 Z" fill="#2e22aa"/>
  <path d="M920 120 L920 60 Q930 60 940 60 Q950 60 955 65 Q960 70 960 80 V100 Q960 110 955 115 Q950 120 940 120 Z M940 80 L940 100 Q945 100 945 95 V85 Q945 80 940 80 Z" fill="#2e22aa"/>
</svg>